<?xml version="1.0" encoding="UTF-8"?>
<svg width="32px" height="32px" viewBox="0 0 32 32" version="1.1" xmlns="http://www.w3.org/2000/svg" xmlns:xlink="http://www.w3.org/1999/xlink">
    <!-- Generator: Sketch 48.2 (47327) - http://www.bohemiancoding.com/sketch -->
    <title>dribbble</title>
    <desc>Created with Sketch.</desc>
    <defs></defs>
    <g id="Desktop-HD" stroke="none" stroke-width="1" fill="none" fill-rule="evenodd" transform="translate(-770.000000, -399.000000)">
        <g id="Stacked-Group" transform="translate(119.000000, 75.000000)" fill="#4A4D5A">
            <g id="Group" transform="translate(136.000000, 0.000000)">
                <g id="Stacked-Group">
                    <g transform="translate(0.000000, 107.000000)" id="Icons">
                        <g transform="translate(383.000000, 217.000000)">
                            <path d="M153.333333,28.5833333 C153.125,27.375 152.333333,23.2083333 150.416667,18.2083333 C150.395833,18.2083333 150.354167,18.2291667 150.333333,18.2291667 C150.333333,18.2291667 142.229167,21.0625 139.604167,26.7708333 C139.479167,26.6666667 139.291667,26.5416667 139.291667,26.5416667 C141.666667,28.4791667 144.6875,29.6666667 148,29.6666667 C149.895833,29.6666667 151.6875,29.2708333 153.333333,28.5833333 Z M149.479167,15.9375 C149.145833,15.1666667 148.770833,14.3958333 148.375,13.625 C141.333333,15.7291667 134.583333,15.5625 134.354167,15.5625 C134.333333,15.7083333 134.333333,15.8541667 134.333333,16 C134.333333,19.5 135.666667,22.7083333 137.833333,25.125 C141.5625,18.4791667 148.9375,16.1041667 148.9375,16.1041667 C149.125,16.0416667 149.3125,16 149.479167,15.9375 Z M147.25,11.5208333 C144.875,7.3125 142.354167,3.89583333 142.166667,3.64583333 C138.354167,5.4375 135.520833,8.95833333 134.625,13.1875 C134.979167,13.1875 140.6875,13.25 147.25,11.5208333 Z M161.5,18.1666667 C161.208333,18.0833333 157.395833,16.875 152.979167,17.5625 C154.770833,22.5 155.5,26.5208333 155.645833,27.3333333 C158.708333,25.2708333 160.875,21.9791667 161.5,18.1666667 Z M144.729167,2.72916667 C144.708333,2.72916667 144.708333,2.72916667 144.6875,2.75 C144.6875,2.75 144.708333,2.72916667 144.729167,2.72916667 Z M157.020833,5.75 C154.625,3.625 151.458333,2.33333333 148,2.33333333 C146.895833,2.33333333 145.8125,2.47916667 144.770833,2.72916667 C144.979167,3 147.5625,6.39583333 149.895833,10.6875 C155.041667,8.77083333 156.979167,5.8125 157.020833,5.75 Z M161.666667,15.8541667 C161.625,12.625 160.479167,9.64583333 158.5625,7.3125 C158.520833,7.35416667 156.333333,10.5208333 150.9375,12.7291667 C151.25,13.375 151.5625,14.0416667 151.854167,14.7083333 C151.958333,14.9375 152.041667,15.1875 152.145833,15.4166667 C156.854167,14.8125 161.5,15.8333333 161.666667,15.8541667 Z M164,16 C164,24.8333333 156.833333,32 148,32 C139.166667,32 132,24.8333333 132,16 C132,7.16666667 139.166667,0 148,0 C156.833333,0 164,7.16666667 164,16 Z" id="dribbble"></path>
                        </g>
                    </g>
                </g>
            </g>
        </g>
    </g>
</svg>