<?xml version="1.0" encoding="UTF-8"?>
<svg width="33px" height="32px" viewBox="0 0 33 32" version="1.1" xmlns="http://www.w3.org/2000/svg" xmlns:xlink="http://www.w3.org/1999/xlink">
    <!-- Generator: Sketch 48.2 (47327) - http://www.bohemiancoding.com/sketch -->
    <title>github</title>
    <desc>Created with Sketch.</desc>
    <defs></defs>
    <g id="Desktop-HD" stroke="none" stroke-width="1" fill="none" fill-rule="evenodd" transform="translate(-707.000000, -399.000000)">
        <g id="Stacked-Group" transform="translate(119.000000, 75.000000)" fill="#4A4D5A">
            <g id="Group" transform="translate(136.000000, 0.000000)">
                <g id="Stacked-Group">
                    <g transform="translate(0.000000, 107.000000)" id="Icons">
                        <g transform="translate(383.000000, 217.000000)">
                            <path d="M86.5645161,0 C95.6738911,0 102,7.34728064 102,16.4032312 C102,23.64372 97.2734375,29.7949317 90.7207031,31.9734858 C89.8828125,32.1229944 89.5820312,31.6103935 89.5820312,31.183226 C89.5820312,30.6492666 89.6035156,28.8765216 89.6035156,26.6766091 C89.6035156,25.1388062 89.0878906,24.156321 88.4863281,23.64372 C92.1601562,23.2379109 96.0273438,21.8496166 96.0273438,15.5488962 C96.0273438,13.7547928 95.3828125,12.3024234 94.3300781,11.1490712 C94.5019531,10.7219037 95.0605469,9.05595056 94.1582031,6.79196292 C92.7832031,6.36479544 89.625,8.47927446 89.625,8.47927446 C88.3144531,8.11618211 86.8964844,7.92395674 85.5,7.92395674 C84.1035156,7.92395674 82.6855469,8.11618211 81.375,8.47927446 C81.375,8.47927446 78.2167969,6.36479544 76.8417969,6.79196292 C75.9394531,9.05595056 76.4980469,10.7219037 76.6699219,11.1490712 C75.6171875,12.3024234 74.9726562,13.7547928 74.9726562,15.5488962 C74.9726562,21.8282582 78.8183594,23.2379109 82.4921875,23.64372 C82.0195312,24.0708875 81.5898438,24.7970722 81.4394531,25.8436325 C80.4941406,26.2708 78.0878906,26.9969847 76.6484375,24.4766966 C75.7460938,22.9175353 74.1132812,22.789385 74.1132812,22.789385 C72.5019531,22.7680266 74.0058594,23.7932286 74.0058594,23.7932286 C75.0800781,24.2844712 75.8320312,26.1853665 75.8320312,26.1853665 C76.7988281,29.1114637 81.3964844,28.1289785 81.3964844,28.1289785 C81.3964844,29.4959144 81.4179688,30.7774169 81.4179688,31.183226 C81.4179688,31.6103935 81.1171875,32.1229944 80.2792969,31.9734858 C73.7265625,29.7949317 69,23.64372 69,16.4032312 C69,7.34728064 77.4551411,0 86.5645161,0 Z M75.2519531,23.5582865 C75.2089844,23.64372 75.0800781,23.6650784 74.9726562,23.6010032 C74.84375,23.5369281 74.7792969,23.4301362 74.8222656,23.3447027 C74.8652344,23.2806276 74.9726562,23.2592692 75.1015625,23.301986 C75.2304687,23.3660611 75.2949219,23.472853 75.2519531,23.5582865 Z M75.9179688,24.2844712 C75.8320313,24.3699047 75.6816406,24.3271879 75.5742188,24.2203961 C75.4667969,24.0922458 75.4453125,23.9427372 75.53125,23.8786621 C75.6171875,23.7932286 75.7675781,23.8359453 75.875,23.9427372 C75.9824219,24.0708875 76.0039063,24.2203961 75.9179688,24.2844712 Z M76.5625,25.245598 C76.4765625,25.3096732 76.3046875,25.245598 76.1972656,25.0960894 C76.0898437,24.9465808 76.0898437,24.7757138 76.1972656,24.7116387 C76.3046875,24.6262052 76.4765625,24.6902803 76.5625,24.8397889 C76.6699219,24.9892975 76.6699219,25.1601645 76.5625,25.245598 Z M77.4648438,26.1426497 C77.3789063,26.2494416 77.1855469,26.2280832 77.0351563,26.0785746 C76.8847656,25.9504244 76.8417969,25.758199 76.9492188,25.6727655 C77.0351563,25.5659736 77.2285156,25.587332 77.3789063,25.7368406 C77.5078125,25.8649909 77.5507813,26.0572162 77.4648438,26.1426497 Z M78.6894531,26.6766091 C78.6464844,26.8047593 78.453125,26.8688345 78.28125,26.8047593 C78.0878906,26.7620426 77.9589844,26.612534 78.0019531,26.4843837 C78.0449219,26.3562335 78.2382813,26.2921584 78.4101563,26.3348751 C78.6035156,26.3989502 78.7324219,26.5484588 78.6894531,26.6766091 Z M80.0429688,26.783401 C80.0429688,26.9115512 79.8925781,27.0183431 79.6992188,27.0183431 C79.484375,27.0397014 79.3339844,26.9329096 79.3339844,26.783401 C79.3339844,26.6552507 79.484375,26.5484588 79.6777344,26.5484588 C79.8710938,26.5271005 80.0429688,26.6338923 80.0429688,26.783401 Z M81.2890625,26.5698172 C81.3105469,26.6979675 81.1816406,26.8261177 80.9882812,26.8688345 C80.7949219,26.9115512 80.6230469,26.8261177 80.6015625,26.6979675 C80.5800781,26.5484588 80.7089844,26.4203086 80.9023437,26.3775918 C81.0957031,26.3562335 81.2675781,26.441667 81.2890625,26.5698172 Z" id="github" transform="translate(85.500000, 16.000000) scale(-1, 1) translate(-85.500000, -16.000000) "></path>
                        </g>
                    </g>
                </g>
            </g>
        </g>
    </g>
</svg>