<svg xmlns="http://www.w3.org/2000/svg" width="92" height="57" viewBox="0 0 92 57">
  <path d="M466.350868,3.04902684 L486.151043,14.5887646 C486.912259,15.0324407 487.535092,16.1211646 487.535092,17.0081941 L487.535092,40.0885728 C487.535092,40.9756023 486.912259,42.0643262 486.151043,42.5080022 L466.350868,54.04774 C465.589652,54.4913838 464.343986,54.4913838 463.58277,54.04774 L443.782595,42.5080022 C443.02138,42.0643262 442.398546,40.9756023 442.398546,40.0885728 L442.398546,17.0081941 C442.398546,16.1211646 443.02138,15.0324407 443.782595,14.5887646 L463.58277,3.04902684 C464.343986,2.60538307 465.589652,2.60538307 466.350868,3.04902684 Z M464.966819,42.9591293 C472.964555,42.9591293 479.447978,36.4170125 479.447978,28.3469471 C479.447978,20.2768494 472.964555,13.7347649 464.966819,13.7347649 C456.969084,13.7347649 450.48566,20.2768494 450.48566,28.3469471 C450.48566,36.4170125 456.969084,42.9591293 464.966819,42.9591293 Z M487.983964,43.5261508 C488.259738,43.5261508 488.281028,43.8150321 487.98601,44.3304447 L481.792681,55.149721 C481.352983,55.9177917 480.27399,56.5462602 479.394914,56.5462602 L467.015993,56.5462602 C466.136917,56.5462602 466.040826,56.1838683 466.802457,55.7409019 L468.611595,54.6887237 C469.373226,54.2457895 470.619308,53.5206187 471.380684,53.0772007 L482.814583,46.4184799 C483.575926,45.9750941 484.821401,45.2487944 485.582233,44.8044732 L487.40208,43.7417151 C487.652377,43.5955649 487.848746,43.5261508 487.983964,43.5261508 Z M441.952328,43.5253122 C442.087545,43.5253122 442.283947,43.594694 442.534148,43.7407152 L444.352972,44.8023444 C445.1139,45.2465042 446.359406,45.9727395 447.12075,46.4161897 L458.556247,53.0771039 C459.317559,53.5205542 460.563608,54.2458218 461.32524,54.6887882 L463.134122,55.7408697 C463.895753,56.1838361 463.799662,56.5462602 462.920586,56.5462602 L450.540291,56.5462602 C449.661215,56.5462602 448.582285,55.9177917 448.142651,55.1496564 L441.949962,44.3297996 C441.65488,43.8141935 441.676234,43.5253122 441.952328,43.5253122 Z M479.397248,0.55050664 C480.276355,0.55050664 481.355253,1.17900736 481.794887,1.94714266 L487.98796,12.7685156 C488.28301,13.2840894 488.261656,13.573003 487.985562,13.573003 C487.850312,13.573003 487.653943,13.5036211 487.403742,13.3575999 L485.582233,12.2944225 C484.821305,11.8502626 483.575799,11.1240274 482.814487,10.6805771 L471.37899,4.01966291 C470.617646,3.57621267 469.371596,2.85091283 468.610029,2.40791417 L466.801626,1.35599394 C466.040027,0.912963024 466.136182,0.55050664 467.015226,0.55050664 L479.397248,0.55050664 Z M462.919851,0.55050664 C463.798927,0.55050664 463.895018,0.912898513 463.133387,1.35583266 L461.323961,2.40807545 C460.56233,2.85097735 459.316216,3.57614816 458.55484,4.01956614 L447.120814,10.678287 C446.359438,11.1216727 445.113964,11.8479725 444.353131,12.2922936 L442.533988,13.3545679 C442.283691,13.5007181 442.087322,13.5701322 441.952104,13.5701322 C441.676298,13.5701322 441.654976,13.2812186 441.950026,12.7658061 L448.142587,1.94707815 C448.582253,1.17897511 449.661215,0.55050664 450.540291,0.55050664 L462.919851,0.55050664 Z M498.092792,29.5597583 C498.263333,29.5597583 498.371699,29.8089653 498.371699,30.2947671 L498.371699,46.3417438 C498.371699,47.228741 497.748738,48.3172391 496.98733,48.7605603 L483.20486,56.7855324 C482.955107,56.930973 482.758833,57 482.623264,57 C482.345508,57 482.322588,56.710151 482.616999,56.1933515 L483.137156,55.2801949 C483.575255,54.5111565 484.293444,53.2535099 484.733142,52.4854069 L495.424941,33.8092748 C495.864639,33.041204 496.585609,31.7851702 497.027128,31.0180994 L497.568991,30.0766224 C497.768685,29.7296809 497.951948,29.5597583 498.092792,29.5597583 Z M447.337066,0 C447.614822,0 447.63771,0.289848987 447.343332,0.80661625 L446.796515,1.76647894 C446.358415,2.5355174 445.640194,3.79316396 445.200497,4.56123475 L434.508697,23.2373991 C434.069,24.0054699 433.347998,25.2615037 432.90651,26.0285423 L432.364648,26.9700193 C432.164954,27.3169929 431.98169,27.4869155 431.840846,27.4869155 C431.670306,27.4869155 431.56194,27.2376764 431.56194,26.7518745 L431.56194,10.6738357 C431.56194,9.78680621 432.184901,8.69834036 432.946308,8.25498689 L446.755502,0.214467607 C447.005255,0.0690270234 447.201529,0 447.337066,0 Z M431.840846,29.5597583 C431.98169,29.5597583 432.164986,29.7297132 432.364648,30.0766224 L432.90651,31.0180994 C433.347998,31.7851702 434.069128,33.0411072 434.509017,33.8090813 L445.206474,52.4856004 C445.646364,53.2535744 446.364297,54.5113823 446.801885,55.280711 L447.320699,56.1928354 C447.614822,56.7099575 447.591583,57 447.313443,57 C447.177778,57 446.981472,56.930973 446.731879,56.7856614 L432.946372,48.7604636 C432.184933,48.3171746 431.56194,47.228741 431.56194,46.3417438 L431.56194,30.2947671 C431.56194,29.808933 431.670274,29.5597583 431.840846,29.5597583 Z M482.593503,0 C482.729137,0 482.925442,0.0690270234 483.175068,0.214338584 L496.987234,8.25511591 C497.748706,8.69837262 498.371699,9.78680621 498.371699,10.6738357 L498.371699,26.7518745 C498.371699,27.2377409 498.263365,27.4869155 498.092792,27.4869155 C497.951948,27.4869155 497.768653,27.3169607 497.568991,26.9700515 L497.027128,26.0285423 C496.585609,25.2615037 495.864511,24.0055666 495.424621,23.2375604 L484.727164,4.56107347 C484.287274,3.79306719 483.569341,2.53529161 483.131721,1.76599511 L482.586279,0.80713234 C482.292124,0.290010265 482.315364,0 482.593503,0 Z M499.908621,11.3889428 C500.067046,11.3889428 500.271711,11.5528981 500.49444,11.8883888 L510.62547,27.1496185 C511.124878,27.9019163 511.124843,29.132952 510.625367,29.8852175 L500.494543,45.1438991 C500.27178,45.479422 500.067081,45.6433451 499.908655,45.6433451 C499.711874,45.6433451 499.586422,45.390332 499.586422,44.8988854 L499.586422,41.061241 L499.586422,37.8356791 L499.586422,19.1991892 L499.586422,15.9736274 L499.586422,12.1333702 C499.586422,11.6419236 499.711839,11.3889428 499.908621,11.3889428 Z M430.091294,11.3916522 C430.288141,11.3916522 430.413578,11.6446653 430.413578,12.1360797 L430.413578,15.9723049 L430.413578,19.1978667 L430.413578,37.8343889 L430.413578,41.0599507 L430.413578,44.896176 C430.413578,45.3876548 430.288175,45.6406034 430.091294,45.6406034 C429.932878,45.6406034 429.728112,45.4766158 429.505383,45.1411574 L419.374641,29.8838951 C418.87512,29.1316295 418.87512,27.9006261 419.374641,27.1483283 L429.505383,11.8910982 C429.728146,11.5555753 429.932844,11.3916522 430.091294,11.3916522 Z" transform="translate(-419)"/>
</svg>
