<?xml version="1.0" encoding="UTF-8"?>
<svg width="39px" height="32px" viewBox="0 0 39 32" version="1.1" xmlns="http://www.w3.org/2000/svg" xmlns:xlink="http://www.w3.org/1999/xlink">
    <!-- Generator: Sketch 48.2 (47327) - http://www.bohemiancoding.com/sketch -->
    <title>twitter</title>
    <desc>Created with Sketch.</desc>
    <defs></defs>
    <g id="Desktop-HD" stroke="none" stroke-width="1" fill="none" fill-rule="evenodd" transform="translate(-638.000000, -399.000000)">
        <g id="Stacked-Group" transform="translate(119.000000, 75.000000)" fill="#4A4D5A">
            <g id="Group" transform="translate(136.000000, 0.000000)">
                <g id="Stacked-Group">
                    <g transform="translate(0.000000, 107.000000)" id="Icons">
                        <g transform="translate(383.000000, 217.000000)">
                            <path d="M39,3.8 C37.5647208,4.425 36.0057107,4.875 34.3972081,5.05 C36.055203,4.05 37.3172589,2.475 37.9111675,0.6 C36.3769036,1.525 34.6446701,2.2 32.838198,2.55 C31.3781726,0.975 29.2994924,0 26.9980964,0 C22.5685279,0 19.0050761,3.625 19.0050761,8.075 C19.0050761,8.7 19.0793147,9.325 19.2030457,9.925 C12.571066,9.575 6.65672589,6.375 2.72208122,1.475 C2.02918782,2.675 1.63324873,4.05 1.63324873,5.55 C1.63324873,8.35 3.04378173,10.825 5.19670051,12.275 C3.88515228,12.225 2.64784264,11.85 1.58375635,11.25 L1.58375635,11.35 C1.58375635,15.275 4.33058376,18.525 7.9930203,19.275 C7.3248731,19.45 6.6072335,19.55 5.88959391,19.55 C5.36992386,19.55 4.875,19.5 4.38007614,19.425 C5.39467005,22.625 8.33946701,24.95 11.8534264,25.025 C9.10659898,27.2 5.66687817,28.475 1.93020305,28.475 C1.26205584,28.475 0.643401015,28.45 0,28.375 C3.53870558,30.675 7.74555838,32 12.2741117,32 C26.9733503,32 35.0158629,19.7 35.0158629,9.025 C35.0158629,8.675 35.0158629,8.325 34.9911168,7.975 C36.5501269,6.825 37.9111675,5.4 39,3.8 Z" id="twitter"></path>
                        </g>
                    </g>
                </g>
            </g>
        </g>
    </g>
</svg>